<?xml version="1.0" encoding="UTF-8"?>
<svg xmlns="http://www.w3.org/2000/svg" viewBox="0 0 192 192"><path d="M92.832 109.967c0-4.851 1.378-7.214 6.228-10.623 3.738-2.621 4.985-4.458 4.985-7.408 0-3.804-2.755-6.295-6.819-6.295-4.591 0-7.346 2.424-8.393 7.408l-6.23-1.18c.85-3.935 2.097-6.295 4.655-8.46C89.88 81.18 93.422 80 97.552 80c8.199 0 13.64 4.656 13.64 11.672 0 4.853-1.77 7.541-7.804 11.54-3.54 2.363-4.328 3.738-4.328 7.411v2.36h-6.228v-3.016zm7.737 13.246c0 2.622-2.163 4.787-4.787 4.787-2.621 0-4.787-2.165-4.787-4.787 0-2.624 2.166-4.786 4.854-4.786 2.557 0 4.72 2.162 4.72 4.786zM96 31.52L40 59.765v71.381l56 29.37 56-29.37V59.765L96 31.52zm0 8.96l41.212 20.786-16.614 8.946-39.927-22L96 40.48zm48 85.828l-44 23.077V135.27c-1.323.465-2.738.73-4.218.73-1.316 0-2.586-.2-3.782-.572v13.957l-44-23.077v-59.61l29.562 15.917c1.07-1.834 2.464-3.538 4.364-5.146.386-.329.786-.644 1.198-.945L54.788 61.266l17.229-8.69 40.197 22.15c3.254 2.847 3.786 4.79 4.18 6.836L144 66.697v59.611z" style="fill: #005691;"/></svg>
