<?xml version="1.0" encoding="UTF-8"?>
<svg xmlns="http://www.w3.org/2000/svg" viewBox="0 0 192 192"><path d="M56 40v-4c0-11-9-20-20-20s-20 9-20 20v120c0 11 9 20 20 20h140V40H56zM36 24c6.6 0 12 5.4 12 12v104c-3.3-2.5-7.5-4-12-4s-8.7 1.5-12 4V36c0-6.6 5.4-12 12-12zm132 144H36c-6.6 0-12-5.4-12-12s5.4-12 12-12 12 5.4 12 12h8V48h112v120zm-76-63.9c0-6.6-5.4-12-12-12s-12 5.4-12 12c0 5.2 3.3 9.6 8 11.3v16.7c0 11 9 20 20 20s20-9 20-20v-48c0-6.6 5.4-12 12-12s12 5.4 12 12v24.6l-6.2-6.2-5.7 5.7 15.8 15.8 15.8-15.8-5.7-5.7-6.1 6.1V84.1c0-11-9-20-20-20s-20 9-20 20v48c0 6.6-5.4 12-12 12s-12-5.4-12-12v-16.7c4.7-1.7 8.1-6.1 8.1-11.3zm-12-4c2.2 0 4 1.8 4 4s-1.8 4-4 4-4-1.8-4-4 1.8-4 4-4zm-5.2-20.7h9.7L86 84h5.7l-8.6-24H77l-8.8 24h5l1.6-4.6zm4.9-14.3l3.6 10.5h-7.2l3.6-10.5zm71.6 78.4c2.5-1.1 3.4-2.6 3.4-5.2 0-4.1-2.8-6.3-7.9-6.3H136v24h11.2c5.5 0 8.4-2.3 8.4-6.7 0-3.1-1.2-4.7-4.3-5.8zm-10-7.4h5c2.2 0 3.2.9 3.2 2.8s-.9 2.8-3 2.8h-5.3v-5.6zm5.5 15.8h-5.5v-6.4h5.3c2.4 0 3.7 1.1 3.7 3.2s-1.2 3.2-3.5 3.2z" style="fill: #ffffff;"/></svg>
