<?xml version="1.0" encoding="UTF-8"?>
<svg xmlns="http://www.w3.org/2000/svg" viewBox="0 0 192 192"><path d="M138.224 63.816l-9.398-42.984L58.487 36.21l9.398 42.985 70.34-15.379zm-15.504-33.46l5.98 27.354-54.708 11.96-5.98-27.353 54.708-11.96zM144 176c-17.645 0-32-14.355-32-32s14.355-32 32-32 32 14.355 32 32-14.355 32-32 32zm0-56c-13.234 0-24 10.766-24 24s10.766 24 24 24 24-10.766 24-24-10.766-24-24-24zm-4 37.657l-10.829-10.828 5.658-5.658 5.171 5.172 13.171-13.172 5.658 5.658L140 157.657zM144 176c-17.645 0-32-14.355-32-32s14.355-32 32-32 32 14.355 32 32-14.355 32-32 32zm0-56c-13.234 0-24 10.766-24 24s10.766 24 24 24 24-10.766 24-24-10.766-24-24-24zm-39.082 32.5c-.56-2.58-.87-5.252-.905-7.99l-15.576 3.405c-3.099-6.97-10.056-11.866-18.165-11.908h-.106c-.093 0-.183.012-.275.014L46.734 30.104a15.897 15.897 0 0 0-6.995-10.052 15.895 15.895 0 0 0-12.053-2.162l-11.723 2.563 1.709 7.816 11.723-2.563a7.95 7.95 0 0 1 6.026 1.08 7.947 7.947 0 0 1 3.497 5.027l23.157 105.914a19.97 19.97 0 0 0-5.973 4.064 19.865 19.865 0 0 0-5.93 14.109 19.866 19.866 0 0 0 5.784 14.17 19.867 19.867 0 0 0 14.11 5.93h.104c10.978 0 19.938-8.902 19.995-19.893 0-.127-.015-.25-.017-.377l14.77-3.23zM70.17 168h-.062a11.919 11.919 0 0 1-8.465-3.558c-2.254-2.277-3.486-5.296-3.47-8.5s1.28-6.211 3.557-8.465a11.916 11.916 0 0 1 8.438-3.47h.064c6.614.034 11.968 5.443 11.934 12.059C82.131 162.66 76.755 168 70.169 168zm35.57-35.664l-25.038 5.475-11.107-50.8 82.061-17.942 8.373 38.293a39.655 39.655 0 0 0-8.778-2.691l-5.701-26.078-66.43 14.524 7.688 35.17 23.003-5.03a39.813 39.813 0 0 0-4.07 9.08z" style="fill: #50237f;"/></svg>
