<?xml version="1.0" encoding="UTF-8"?>
<svg xmlns="http://www.w3.org/2000/svg" viewBox="0 0 192 192"><path d="M159.713 80c-1.439-10.004-8.243-19.315-19.237-26.24l4.179-20.89-3.603-.983c-5.684-1.552-13.743-.99-21.031 1.465-7.146 2.405-12.238 6.122-14.69 10.648H56c-12.162 0-23.269 6.287-31.275 17.703-10.196 14.538-11.813 30.31-4.944 48.219L37.154 160h25.969l4-16h33.754l4 16h26.332l8-36.002c7.986-.196 27.898-1.903 36.08-13.721l.711-1.027V80h-16.287zM168 106.655c-6.963 8.318-25.186 9.58-31.852 9.348l-3.33-.124L124.79 152h-13.668l-4-16H60.877l-4 16h-14.03l-15.529-44.762-.046-.125c-5.95-15.47-4.678-28.44 4.003-40.816C37.835 56.944 46.385 52 56 52h55.055l.804-2.947c.849-3.111 4.854-6.146 10.714-8.12 4.193-1.411 8.87-2.073 12.685-1.873l-3.749 18.742 2.522 1.426C149.666 68.066 152 78.542 152 84v4h16v18.655zM60 60h36v8H60v-8zm62 12c-3.309 0-6 2.691-6 6s2.691 6 6 6 6-2.691 6-6-2.691-6-6-6z" style="fill: #006249;"/></svg>
