<?xml version="1.0" encoding="UTF-8"?>
<svg xmlns="http://www.w3.org/2000/svg" viewBox="0 0 192 192"><path d="M104 102.903c15.44 0 28 13.053 28 29.097h8c0-15.517-9.297-28.832-22.45-34.36 6.79-4.438 11.289-12.102 11.289-20.801C128.839 63.143 117.696 52 104 52S79.161 63.143 79.161 76.839c0 8.7 4.5 16.363 11.29 20.801C77.296 103.168 68 116.483 68 132h8c0-16.044 12.56-29.097 28-29.097zM104 60c9.285 0 16.839 7.554 16.839 16.839 0 9.285-7.554 16.838-16.839 16.838S87.161 86.124 87.161 76.84 94.715 60 104 60zM48 16v16H32v8h16v32H32v8h16v32H32v8h16v32H32v8h16v16h112V16H48zm104 152H56V24h96v144z" style="fill: #ffffff;"/></svg>
