<?xml version="1.0" encoding="UTF-8"?>
<svg xmlns="http://www.w3.org/2000/svg" viewBox="0 0 192 192"><path d="M40 16v160h112V16H40zm104 8v96h-16c0-14.276-9.399-26.396-22.333-30.504C111.821 86.082 116 79.522 116 72c0-11.028-8.972-20-20-20s-20 8.972-20 20c0 7.522 4.179 14.082 10.333 17.496C73.399 93.604 64 105.724 64 120H48V24h96zM96 84c-6.617 0-12-5.383-12-12s5.383-12 12-12 12 5.383 12 12-5.383 12-12 12zm24 36H72c0-13.234 10.766-24 24-24s24 10.766 24 24zm-72 48v-40h96v40H48zm20-32h56v8H68v-8zm8 16h40v8H76v-8zm44.4-112h-48v-8h48v8z" style="fill: #ffffff;"/></svg>
