<?xml version="1.0" encoding="UTF-8"?>
<svg xmlns="http://www.w3.org/2000/svg" viewBox="0 0 192 192"><path d="M85.553 92H100v8H84.099a64.287 64.287 0 0 0-.099 4c0 1.438.052 2.761.14 4H100v8H85.609c2.734 7.99 8.205 8 10.391 8 5.856 0 9.756-3.004 12.274-9.455l7.452 2.91C112.012 126.97 105.19 132 96 132c-6.014 0-15.303-2.367-18.698-16H72v-8h4.126a63.511 63.511 0 0 1 0-8H72v-8h5.302C80.697 78.367 89.986 76 96 76c9.34 0 16.168 5.047 19.746 14.597l-7.492 2.806C105.851 86.988 101.957 84 96 84c-5.933 0-8.93 3.681-10.447 8zM164 64v80h12v24H16v-24h12V64H16V45.068l80-25.263 80 25.263V64h-12zM24 152v8h144v-8H24zm20-8V64h-8v80h8zm96 0V64H52v80h88zm16 0V64h-8v80h8zm12-88v-5.068L96 28.195 24 50.932V56h144z" style="fill: #006249;"/></svg>
