<?xml version="1.0" encoding="UTF-8"?>
<svg xmlns="http://www.w3.org/2000/svg" viewBox="0 0 192 192"><path d="M126.8 66.8L96 97.7 65.2 66.8l5.7-5.7L92 82.3V16h8v66.3l21.2-21.2 5.6 5.7zm47.2 47.4l-14 4.7v32l-64 21.3L32 151v-32.1l-14-4.7 15.3-25.5 31.8-10.6 6.3 6.3L48.6 92 96 107.8 143.3 92l-22.8-7.6 6.3-6.3 31.8 10.6 15.4 25.5zm-91.8 13l7.8-13-52.2-17.4-7.8 13 52.2 17.4zm9.8-.8l-6.2 10.4L40 121.6v23.6l52 17.3v-36.1zm60-4.9l-45.8 15.3-6.2-10.4v36l52-17.3v-23.6zm10-11.7l-7.8-13-52.2 17.4 7.8 13 52.2-17.4z" style="fill: #005691;"/></svg>
