<?xml version="1.0" encoding="UTF-8"?>
<svg xmlns="http://www.w3.org/2000/svg" viewBox="0 0 192 192"><path d="M40 64h-8V24h8v40zm16-32h-8v21h8V32zm15.975-16h-8v32h8V16zm102.854 6.829l-5.657-5.658-152 152 5.657 5.658 152-152zM48 127.029V82.697l28.816 15.516 5.906-5.906-27.934-15.041 17.229-8.69L94.219 80.81l5.89-5.889-19.437-10.71L96 56.48l14.99 7.56 5.956-5.956L96 47.52 40 75.765v59.264l8-8zm85.552-51.61l3.66 1.847-11.931 6.425-19.687 19.686L144 82.697v59.611l-44 23.077v-56.414l-8 8v48.414L60.242 148.73l-5.925 5.925L96 176.517l56-29.371V75.765l-12.493-6.301-5.955 5.955zm-5.527-28.414V16h-8v32h7.005l.995-.995zM144 31.029V24h-8v15.03l8-8zm8 25.942V68h8V48.971l-8 8z" style="fill: #005691;"/></svg>
