<?xml version="1.0" encoding="UTF-8"?>
<svg xmlns="http://www.w3.org/2000/svg" viewBox="0 0 192 192"><path d="M60 84.953h9.252c2.177-10.232 4.789-15.674 10.013-21.116C84.49 58.612 91.02 56 98.748 56c7.401 0 13.388 2.504 17.633 7.184 3.047 3.374 4.79 6.748 7.183 13.714l-7.945 2.177c-4.027-11.537-8.38-15.565-17.197-15.565-7.184 0-12.626 3.157-16.218 9.47-1.85 3.265-2.83 6.204-3.918 11.973h24.163v6.857H77.633c-.109 1.305-.109 2.394-.109 4.353 0 2.286 0 3.483.109 4.572h24.816v6.857H78.395c2.938 14.476 9.142 20.898 20.245 20.898 9.36 0 14.367-4.572 18.176-16.436l7.946 2.721c-2.395 7.184-4.354 10.667-8.055 14.368-4.68 4.462-10.884 6.857-18.067 6.857-8.381 0-15.239-2.94-20.463-8.816-4.68-5.225-6.857-10.014-8.925-19.592H60v-6.857h8.49a42.386 42.386 0 0 1-.218-4.354l.109-4.571H60v-6.857zM96 176c-44.112 0-80-35.888-80-80s35.888-80 80-80 80 35.888 80 80-35.888 80-80 80zm0-152c-39.701 0-72 32.299-72 72s32.299 72 72 72 72-32.299 72-72-32.299-72-72-72z" style="fill: #ffffff;"/></svg>
