<?xml version="1.0" encoding="UTF-8"?>
<svg xmlns="http://www.w3.org/2000/svg" viewBox="0 0 192 192"><path d="M139.2 67.6C127.6 65.3 112.3 64 96 64s-31.6 1.3-43.2 3.6C38.6 70.4 32 74.4 32 80v24c0 5.6 6.6 9.6 20.8 12.4 11.6 2.3 26.9 3.6 43.2 3.6s31.6-1.3 43.2-3.6c14.2-2.8 20.8-6.8 20.8-12.4V80c0-5.6-6.6-9.6-20.8-12.4zM96 72c32.9 0 51.6 5 55.5 8-3.9 3-22.6 8-55.5 8s-51.6-5-55.5-8c3.9-3 22.6-8 55.5-8zm0 40c-34.6 0-53.5-5.5-56-8.4V88.7c3.2 1.4 7.5 2.6 12.8 3.7C64.4 94.7 79.7 96 96 96s31.6-1.3 43.2-3.6c5.3-1.1 9.6-2.3 12.8-3.7v14.8c-2.5 3-21.4 8.5-56 8.5z" style="fill: #005691;"/></svg>
