<?xml version="1.0" encoding="UTF-8"?>
<svg xmlns="http://www.w3.org/2000/svg" viewBox="0 0 192 192"><path d="M96 16c-44.1 0-80 35.9-80 80s35.9 80 80 80 80-35.9 80-80-35.9-80-80-80zm71.9 76H140c-.7-27.4-8.7-50.7-20.5-64.1 27 9.4 46.7 34.3 48.4 64.1zM92 24.5V92H60.1c1-34.6 14.8-63.5 31.9-67.5zm0 75.5v67.5c-17.1-4-30.9-32.9-31.9-67.5H92zm8 67.5V100h31.9c-1 34.6-14.8 63.5-31.9 67.5zm0-75.5V24.5c17.1 4 30.9 32.9 31.9 67.5H100zM72.6 27.9C60.7 41.3 52.8 64.6 52.1 92h-28c1.7-29.8 21.4-54.7 48.5-64.1zM24.1 100H52c.7 27.4 8.7 50.7 20.5 64.1-27-9.4-46.7-34.3-48.4-64.1zm95.3 64.1c11.9-13.3 19.8-36.7 20.5-64.1h27.9c-1.6 29.8-21.3 54.7-48.4 64.1z" style="fill: #525f6b;"/></svg>
