<?xml version="1.0" encoding="UTF-8"?>
<!-- Generator: Adobe Illustrator 24.0.1, SVG Export Plug-In . SVG Version: 6.00 Build 0)  -->
<svg xmlns="http://www.w3.org/2000/svg" xmlns:xlink="http://www.w3.org/1999/xlink" version="1.1" id="Icon_x5F_contour" x="0px" y="0px" viewBox="0 0 192 192" style="enable-background:new 0 0 192 192;" xml:space="preserve">
<path d="M53.90527,126.99902l5.63086,5.68359L45.24414,146.8418l-5.63086-5.68359L53.90527,126.99902z M152.38623,40.69971  l-5.62988-5.68359l-14.41406,14.2793l5.62988,5.68359L152.38623,40.69971z M132.46387,132.68262l14.29199,14.15918l5.63086-5.68359  l-14.29199-14.15918L132.46387,132.68262z M59.65771,49.29541l-14.41406-14.2793l-5.62988,5.68359L54.02783,54.979  L59.65771,49.29541z M72,160h48v-8H72V160z M76,176h40v-8H76V176z M129.90625,57.7085C120.84424,48.86865,108.80273,44,95.99951,44  c-12.80273,0-24.84375,4.86865-33.90527,13.7085C53.00537,66.57471,48,78.37061,48,90.92285  c0,12.55273,5.00537,24.34863,14.09424,33.21484c1.39453,1.36084,2.74023,2.479,4.0415,3.56104  c0.44824,0.37256,0.90283,0.75049,1.36768,1.14502c0.25635,0.21729,0.55273,0.45605,0.87646,0.71582  C69.73389,130.646,72,132.46484,72,134v10h8v-10c0-5.37256-4.30225-8.8252-6.61328-10.67969  c-0.26025-0.20898-0.49951-0.40039-0.70605-0.57568c-0.48682-0.41309-0.9624-0.80859-1.43115-1.19824  c-1.23535-1.02686-2.40186-1.99658-3.56934-3.13525C60.14795,111.06299,56,101.30127,56,90.92285  c0-10.37793,4.14795-20.13965,11.68066-27.48779C75.23926,56.06104,85.29688,52,96.00049,52  c10.70312,0,20.76025,4.06104,28.31934,11.43506C131.85205,70.7832,136,80.54492,136,90.92285  c0,10.37842-4.14795,20.14014-11.68018,27.48828c-1.16748,1.13867-2.33398,2.1084-3.56934,3.13525  c-0.46875,0.38965-0.94434,0.78516-1.43164,1.19873c-0.20605,0.1748-0.44531,0.36621-0.70557,0.5752  C116.30225,125.1748,112,128.62744,112,134v10h8v-10c0-1.53516,2.26611-3.354,3.62012-4.44043  c0.32373-0.25977,0.62012-0.49854,0.87598-0.71533c0.46533-0.39502,0.91992-0.77295,1.36816-1.14551  c1.30127-1.08203,2.64697-2.2002,4.0415-3.56104C138.99463,115.27148,144,103.47559,144,90.92285  C144,78.37061,138.99463,66.57471,129.90625,57.7085z M152,88v8h19.90918v-8H152z M40,88H20.09082v8H40V88z M100,16h-8v20h8V16z" style="fill: #bfc0c2;"/>
<g>
</g>
<g>
</g>
<g>
</g>
<g>
</g>
<g>
</g>
<g>
</g>
<g>
</g>
<g>
</g>
<g>
</g>
<g>
</g>
<g>
</g>
<g>
</g>
<g>
</g>
<g>
</g>
<g>
</g>
</svg>
