<?xml version="1.0" encoding="UTF-8"?>
<svg xmlns="http://www.w3.org/2000/svg" viewBox="0 0 192 192"><path d="M111.185 121.36a29.515 29.515 0 0 1-4.294 5.469l-24.031 24.03C77.288 156.433 69.88 159.5 62 159.5s-15.288-3.068-20.86-8.64c-11.502-11.503-11.502-30.217 0-41.72L65.171 85.11c11.502-11.502 30.218-11.502 41.72 0a29.391 29.391 0 0 1 6.963 11.05 13.469 13.469 0 0 1-5.87 1.346c-.77 0-1.527-.077-2.271-.201a21.46 21.46 0 0 0-4.48-6.538c-8.382-8.383-22.022-8.383-30.404 0l-24.032 24.031c-8.383 8.383-8.383 22.023 0 30.406 8.383 8.382 22.023 8.382 30.406 0l24.03-24.032c.079-.077.147-.163.223-.242 2.135.372 4.316.573 6.528.573 1.076 0 2.142-.054 3.201-.143zm41.69-82.235c-11.501-11.502-30.217-11.502-41.72 0l-24.03 24.03a29.511 29.511 0 0 0-4.316 5.472 38.31 38.31 0 0 1 3.222-.145c2.214 0 4.395.201 6.53.573.077-.078.143-.164.22-.242l24.032-24.031c8.383-8.383 22.022-8.383 30.405 0s8.383 22.022 0 30.405l-24.031 24.031c-8.383 8.383-22.022 8.383-30.405 0a21.416 21.416 0 0 1-4.47-6.536 13.697 13.697 0 0 0-2.28-.203c-2.068 0-4.055.473-5.86 1.342a29.306 29.306 0 0 0 6.953 11.054c5.75 5.751 13.305 8.627 20.86 8.627s15.108-2.876 20.86-8.627l24.03-24.03c11.502-11.503 11.502-30.218 0-41.72z" style="fill: #005691;"/></svg>
