<?xml version="1.0" encoding="UTF-8"?>
<svg xmlns="http://www.w3.org/2000/svg" viewBox="0 0 192 192"><path d="M16 56v80h160V56H16zm152 72H24V64h144v64zm-84.77-21.334h-3.897v-8h2.737C82.03 97.808 82 96.928 82 96s.029-1.808.07-2.667h-2.736v-8h3.896C86.25 73.989 94.18 72 99.333 72c5.639 0 13.178 2.186 17.08 12.597l-7.492 2.806c-1.919-5.12-4.876-7.403-9.588-7.403-1.6 0-5.464.005-7.686 5.333h11.02v8H90.073C90.026 94.17 90 95.055 90 96s.026 1.83.073 2.667h12.594v8h-11.02c2.222 5.328 6.086 5.333 7.686 5.333 2.876 0 7-.773 9.607-7.454l7.453 2.908c-4.047 10.37-11.51 12.546-17.06 12.546-5.154 0-13.083-1.988-16.103-13.334z" style="fill: #50237f;"/></svg>
