<?xml version="1.0" encoding="UTF-8"?>
<!-- Generator: Adobe Illustrator 24.0.1, SVG Export Plug-In . SVG Version: 6.00 Build 0)  -->
<svg xmlns="http://www.w3.org/2000/svg" xmlns:xlink="http://www.w3.org/1999/xlink" version="1.1" id="Icon_x5F_contour" x="0px" y="0px" viewBox="0 0 192 192" style="enable-background:new 0 0 192 192;" xml:space="preserve">
<path d="M104,104v56h56v-56H104z M152,152h-40v-40h40V152z M88,32H32v56h56V32z M80,80H40V40h40V80z M96,52v-8  c12.58496,0,23.28955,3.63916,30.95654,10.52393c7.42139,6.66382,11.79584,16.29071,12.81085,28.05176l5.40399-5.4043  l5.65723,5.65723L136,97.65674l-14.82861-14.82812l5.65723-5.65723l4.85828,4.85852C128.78278,55.07239,106.12061,52,96,52z M96,140  v8c-12.58496,0-23.28955-3.63916-30.95654-10.52393c-7.42139-6.66382-11.79584-16.29071-12.81085-28.05176l-5.40399,5.4043  l-5.65723-5.65723L56,94.34326l14.82861,14.82812l-5.65723,5.65723l-4.85828-4.85852C63.21722,136.92761,85.87939,140,96,140z" style="fill: #ffffff;"/>
<g>
</g>
<g>
</g>
<g>
</g>
<g>
</g>
<g>
</g>
<g>
</g>
<g>
</g>
<g>
</g>
<g>
</g>
<g>
</g>
<g>
</g>
<g>
</g>
<g>
</g>
<g>
</g>
<g>
</g>
</svg>
