<?xml version="1.0" encoding="UTF-8"?>
<svg xmlns="http://www.w3.org/2000/svg" viewBox="0 0 192 192"><path d="M69.628 105.4A27.866 27.866 0 0 1 68 96c0-15.44 12.56-28 28-28 3.297 0 6.46.577 9.4 1.628l-6.592 6.593C97.888 76.09 96.956 76 96 76c-11.028 0-20 8.972-20 20 0 .956.09 1.888.22 2.808l-6.592 6.593zm46.151-12.208c.13.92.221 1.852.221 2.808 0 11.028-8.972 20-20 20-.956 0-1.888-.09-2.808-.22l-6.593 6.592A27.866 27.866 0 0 0 96 124c15.44 0 28-12.56 28-28 0-3.297-.577-6.46-1.628-9.4l-6.593 6.592zm43.05-54.363l-5.658-5.658-120 120 5.658 5.658 120-120zm12.683 55.255c-.384-.702-9.24-16.694-26.918-29.707l-5.735 5.735C152.216 79.664 160.457 91.45 163.333 96c-5.195 8.215-27.859 40-67.333 40a71.273 71.273 0 0 1-20.14-2.89l-6.056 6.057-.128.362C78.103 142.496 86.96 144 96 144c49.802 0 74.485-44.203 75.512-46.084L172.556 96l-1.044-1.916zm-124.106 33.54l5.727-5.728c-13.359-9.55-21.59-21.344-24.467-25.896C33.862 87.785 56.526 56 96 56c6.88 0 13.635.978 20.139 2.89l6.064-6.064.125-.354C113.898 49.504 105.04 48 96 48c-49.802 0-74.485 44.203-75.512 46.084L19.444 96l1.044 1.916c.377.69 9.233 16.687 26.918 29.707z" style="fill: #005691;"/></svg>
